2.8Hzlow3min_grf.mot
version=1
nRows=20
nColumns 19
inDegrees=yes
endheader
time	1_ground_force_vx	1_ground_force_vy	1_ground_force_vz	1_ground_force_px	1_ground_force_py	1_ground_force_pz	1_ground_torque_x	1_ground_torque_y	1_ground_torque_z	2_ground_force_vx	2_ground_force_vy	2_ground_force_vz	2_ground_force_px	2_ground_force_py	2_ground_force_pz	2_ground_torque_x	2_ground_torque_y	2_ground_torque_z
            3.751500	           -0.272687	           -6.131249	            0.478817	           -0.233013	            0.005581	           -0.255695	           -0.562741	            0.038045	           -0.310720	            0.056511	           -2.759545	           -0.713797	           -0.232311	            0.006130	           -0.833667	           -0.356776	           -0.048351	           -0.056567
            3.752000	           -0.134573	           -5.591605	            0.755930	           -0.233013	            0.005581	           -0.255695	           -0.668725	            0.102882	           -0.323132	            0.241314	           -2.022777	           -0.570465	           -0.232311	            0.006130	           -0.833667	           -0.375680	           -0.019926	           -0.094159
            3.752500	           -0.226619	           -4.870167	            0.667538	           -0.233013	            0.005581	           -0.255695	           -0.646363	            0.037896	           -0.271007	           -0.039183	           -2.207439	           -0.711786	           -0.232311	            0.006130	           -0.833667	           -0.450607	           -0.086164	           -0.150913
            3.753000	           -0.455636	           -5.951805	            0.663469	           -0.233013	            0.005581	           -0.255695	           -0.589504	           -0.026661	           -0.337554	            0.099435	           -1.654988	           -0.569091	           -0.232311	            0.006130	           -0.833667	           -0.413199	           -0.038832	           -0.131911
            3.753500	            0.094674	           -5.771826	            0.754588	           -0.233013	            0.005581	           -0.255695	           -0.480604	           -0.045274	           -0.220464	            0.146243	           -1.654484	           -0.662967	           -0.232311	            0.006130	           -0.833667	           -0.488289	           -0.057875	           -0.169646
            3.754000	            0.323558	           -2.707659	            0.858871	           -0.233013	            0.005581	           -0.255695	           -0.035723	           -0.156322	           -0.137187	            0.426014	           -1.285173	           -0.661772	           -0.232311	            0.006130	           -0.833667	           -0.450865	           -0.001493	           -0.037509
            3.754500	            1.469943	            4.320172	            1.528155	           -0.233013	            0.005581	           -0.255695	            1.322483	           -0.434181	            0.226436	            0.659557	           -1.099844	           -0.755071	           -0.232311	            0.006130	           -0.833667	           -0.507263	            0.007823	           -0.056301
            3.755000	            2.753318	           12.430212	            2.064168	           -0.216060	            0.006676	           -0.510133	           -0.010766	           -0.048604	           -0.008071	            0.842161	            0.191043	           -1.079048	           -0.232311	            0.006130	           -0.833667	           -0.713946	            0.025781	            0.000405
            3.755500	            3.627539	           19.813409	            3.927934	           -0.242444	            0.006549	           -0.481827	           -0.043663	           -0.238485	           -0.047279	            1.303349	            2.218366	           -1.072020	           -0.232311	            0.006130	           -0.833667	           -0.958352	            0.081548	            0.019561
            3.756000	            3.767688	           26.656847	            5.516067	           -0.247103	            0.006504	           -0.471451	           -0.016832	           -0.119088	           -0.024643	            1.389635	            4.245173	           -1.299472	           -0.232311	            0.006130	           -0.833667	           -1.221490	            0.109292	           -0.074477
            3.756500	            3.447664	           34.944877	            6.515393	           -0.234674	            0.006465	           -0.461938	            0.039355	            0.398898	            0.074374	            1.107145	            4.612956	           -1.438823	           -0.232311	            0.006130	           -0.833667	           -1.296504	            0.071278	           -0.093430
            3.757000	            1.931448	           42.339016	            5.725433	           -0.222722	            0.006513	           -0.472519	            0.031951	            0.700400	            0.094714	            1.202050	            4.246002	           -1.721746	           -0.232311	            0.006130	           -0.833667	           -1.334200	            0.090518	           -0.225298
            3.757500	           -1.875496	           46.306288	            5.247467	           -0.236032	            0.006471	           -0.463252	           -0.005731	            0.141504	            0.016035	            1.756335	            6.457310	           -1.573316	           -0.232311	            0.006130	           -0.833667	           -1.672651	            0.165255	           -0.319135
            3.758000	           -4.856808	           49.011467	            4.853753	           -0.252334	            0.006418	           -0.451556	            0.039140	           -0.394975	           -0.039116	            2.585615	           10.327972	           -1.700660	           -0.263679	            0.005194	           -0.602963	           -0.062208	           -0.248485	            0.040917
            3.758500	           -7.334685	           55.682785	            4.429938	           -0.239716	            0.006443	           -0.457025	            0.077980	           -0.592003	           -0.047098	            3.643847	           15.672499	           -1.775920	           -0.272386	            0.005286	           -0.637679	           -0.013104	           -0.056363	            0.006387
            3.759000	           -8.940494	           64.695169	            4.610136	           -0.226422	            0.006478	           -0.464588	            0.073166	           -0.529445	           -0.037728	            4.753294	           19.730499	           -2.512793	           -0.277131	            0.005274	           -0.639051	            0.002101	            0.008721	           -0.001111
            3.759500	          -11.231164	           72.801570	            5.842862	           -0.235445	            0.006457	           -0.459999	            0.044417	           -0.287918	           -0.023108	            5.573125	           26.180409	           -2.959435	           -0.273400	            0.005326	           -0.649892	           -0.003857	           -0.018120	            0.002048
            3.760000	          -14.481890	           83.245930	            8.326135	           -0.248539	            0.006423	           -0.452522	            0.013522	           -0.077725	           -0.007774	            5.787106	           31.708383	           -3.690673	           -0.268717	            0.005322	           -0.643891	           -0.037701	           -0.206569	            0.024043
            3.760500	          -17.964809	           94.416224	            9.666671	           -0.242270	            0.006441	           -0.456581	           -0.002563	            0.013470	            0.001379	            4.640030	           37.966036	           -3.855567	           -0.267502	            0.005335	           -0.646558	           -0.021619	           -0.176890	            0.017964
            3.761000	          -21.401295	          102.341744	           10.993181	           -0.238214	            0.006458	           -0.460331	            0.007278	           -0.034804	           -0.003739	            2.872873	           47.349835	           -3.398967	           -0.268186	            0.005349	           -0.651157	           -0.004146	           -0.068335	            0.004905
